<!DOCTYPE svg PUBLIC "-//W3C//DTD SVG 1.1//EN" "http://www.w3.org/Graphics/SVG/1.1/DTD/svg11.dtd">
<!-- Uploaded to: SVG Repo, www.svgrepo.com, Transformed by: SVG Repo Mixer Tools -->
<svg height="64px" width="64px" version="1.1" id="Layer_1" xmlns="http://www.w3.org/2000/svg" xmlns:xlink="http://www.w3.org/1999/xlink" viewBox="0 0 512.00 512.00" xml:space="preserve" fill="#000000" stroke="#000000" stroke-width="0.00512">
<g id="SVGRepo_bgCarrier" stroke-width="0"/>
<g id="SVGRepo_iconCarrier"> <g> <path style="fill:#3D6DEB;" d="M488.727,139.636H23.273C10.42,139.636,0,150.056,0,162.909c0,12.853,10.42,23.273,23.273,23.273 h465.455c12.853,0,23.273-10.42,23.273-23.273C512,150.056,501.58,139.636,488.727,139.636z"/> <path style="fill:#3D6DEB;" d="M488.727,232.727H23.273C10.42,232.727,0,243.147,0,256c0,12.853,10.42,23.273,23.273,23.273 h465.455C501.58,279.273,512,268.853,512,256C512,243.147,501.58,232.727,488.727,232.727z"/> <path style="fill:#3D6DEB;" d="M488.727,325.818H23.273C10.42,325.818,0,336.238,0,349.091c0,12.853,10.42,23.273,23.273,23.273 h465.455c12.853,0,23.273-10.42,23.273-23.273C512,336.238,501.58,325.818,488.727,325.818z"/> </g> </g>
</svg>